<?xml version="1.0"?>
<svg width="1481" height="539" xmlns="http://www.w3.org/2000/svg" xmlns:svg="http://www.w3.org/2000/svg" xmlns:xlink="http://www.w3.org/1999/xlink" preserveAspectRatio="xMidYMid meet" version="1.0">
 <g class="layer">
  <title>Layer 1</title>
  <g fill="#000000" id="svg_1" transform="matrix(0.1 0 0 -0.1 0 0)">
   <path d="m2995,-147c-252,-23 -577,-121 -804,-244c-262,-141 -533,-373 -696,-596l-60,-82l-545,-1c-526,0 -546,-1 -578,-20c-91,-56 -94,-179 -5,-237c25,-17 66,-18 495,-23l468,-5l-26,-55c-38,-81 -98,-261 -125,-372l-23,-98l-203,0c-203,0 -204,0 -228,-25c-32,-31 -32,-69 0,-100c24,-25 26,-25 216,-25l192,0l-6,-82c-4,-46 -7,-109 -7,-140l0,-58l-185,0c-184,0 -186,0 -210,-25c-14,-13 -25,-36 -25,-50c0,-14 11,-37 25,-50c24,-25 26,-25 212,-25l189,0l17,-124c9,-67 19,-130 23,-140c6,-15 -13,-16 -205,-16c-212,0 -212,0 -236,-25c-32,-31 -32,-69 0,-100l24,-25l228,0l228,0l31,-88c17,-48 41,-111 52,-139l22,-53l-271,0l-270,0l-24,-25c-32,-31 -32,-69 0,-100l24,-25l309,0l309,0l43,-72c62,-105 163,-238 268,-353l91,-100l-703,-5c-655,-5 -704,-6 -729,-23c-89,-58 -86,-181 5,-237c32,-19 52,-20 873,-20l840,0l560,-559c445,-445 567,-560 592,-566c77,-16 65,-26 658,566l560,559l845,0c826,0 846,1 878,20c91,56 94,179 5,237c-25,17 -74,18 -734,23l-708,5l91,100c106,117 189,226 260,342l51,83l319,0l319,0l24,25c32,31 32,69 0,100l-24,25l-281,0c-154,0 -280,2 -280,4c0,2 11,28 24,57c13,30 35,91 50,137l28,82l234,0l235,0l24,25c14,13 25,36 25,50c0,14 -11,37 -25,50l-24,25l-217,0l-216,0l6,23c3,12 14,75 23,140l16,117l194,0c193,0 194,0 218,25c14,13 25,36 25,50c0,14 -11,37 -25,50c-24,25 -26,25 -215,25l-190,0l-1,68c0,37 -4,100 -8,140l-7,72l199,0c197,0 198,0 222,25c32,31 32,69 0,100c-24,25 -25,25 -233,25l-210,0l-22,98c-25,109 -77,265 -121,361c-16,35 -29,65 -29,67c0,2 215,4 478,4c458,0 478,1 510,20c94,57 94,183 0,240c-32,19 -52,20 -593,20l-560,1l-60,82c-76,104 -224,259 -340,356c-314,262 -722,435 -1137,480c-90,10 -341,12 -433,4zm500,-408c391,-69 698,-228 975,-505c238,-238 389,-499 469,-811c45,-174 55,-258 55,-454c0,-196 -10,-280 -55,-454c-80,-312 -231,-573 -469,-811c-278,-278 -579,-434 -980,-507c-132,-24 -438,-24 -570,0c-401,73 -702,229 -980,507c-281,281 -448,610 -512,1005c-16,103 -16,417 0,520c131,813 763,1425 1577,1524c109,13 381,6 490,-14z" fill="#34a0de" id="svg_2" transform="matrix(1 0 0 1 0 0)"/>
   <path d="m2629,-1350c-55,-9 -129,-41 -167,-70c-15,-12 -86,-80 -158,-151c-72,-71 -134,-129 -137,-129c-4,0 -7,9 -7,20c0,33 -23,71 -51,86c-62,32 -213,7 -263,-42c-55,-56 -15,-149 88,-199c31,-15 56,-30 56,-33c0,-3 -42,-49 -94,-101c-95,-98 -133,-157 -172,-271c-17,-49 -19,-86 -19,-330c0,-265 1,-277 23,-324c12,-28 34,-64 47,-82c23,-29 25,-42 25,-127c0,-81 3,-99 23,-127c46,-69 63,-75 221,-78c165,-4 197,4 241,62c19,25 30,53 33,86l5,50l881,-2l881,-3l7,-49c7,-53 28,-88 72,-120c25,-19 41,-21 186,-21c145,0 161,2 186,21c59,44 69,67 73,177c3,93 5,105 32,144c57,83 62,108 67,355c6,364 -24,464 -200,644l-98,101l44,17c101,39 161,137 119,194c-35,48 -88,67 -186,67c-85,0 -90,-1 -113,-28c-14,-16 -24,-41 -24,-58c0,-16 -3,-29 -6,-29c-4,0 -73,65 -155,144c-160,156 -211,189 -315,206c-70,12 -1077,11 -1145,0zm1186,-174c35,-16 103,-75 228,-196c97,-94 177,-176 177,-181c0,-5 -417,-9 -1015,-9c-806,0 -1015,3 -1014,13c1,6 79,87 174,179c127,124 187,174 226,193l54,25l560,0l560,0l50,-24zm-1709,-661c93,-42 179,-101 232,-159c54,-58 54,-90 2,-121c-31,-18 -55,-20 -212,-23c-176,-4 -178,-4 -222,22c-80,47 -107,141 -63,226c25,50 60,79 108,90c44,10 69,4 155,-35zm2409,9c82,-53 94,-176 27,-256c-42,-50 -75,-58 -239,-58c-203,1 -273,19 -273,73c0,51 93,137 223,207c130,71 194,79 262,34zm-627,-247c-9,-105 -70,-200 -147,-226c-44,-14 -1019,-16 -1071,-1c-44,12 -103,71 -125,124c-19,44 -37,145 -29,157c3,5 314,9 691,9l686,0l-5,-63zm-1533,-394c55,-64 102,-120 103,-125c2,-4 -86,-8 -196,-8l-199,0l-61,31c-93,46 -125,116 -87,189l16,30l162,0l162,-1l100,-116zm2141,80c32,-77 -5,-145 -104,-189c-49,-23 -64,-24 -247,-24c-107,0 -195,3 -195,6c0,3 46,60 103,125l102,119l163,0l163,0l15,-37zm-656,-48c0,-23 -28,-86 -48,-109c-9,-10 -35,-27 -57,-37c-37,-17 -76,-19 -530,-19c-457,0 -493,2 -531,19c-50,23 -93,76 -101,125l-6,36l637,0c565,0 636,-2 636,-15z" fill="#34a0de" id="svg_3" stroke="#34a0de" transform="matrix(1 0 0 1 0 0)"/>
   <path d="m8558,-1240c-147,-26 -249,-81 -359,-190c-70,-69 -94,-102 -131,-177c-65,-129 -81,-211 -76,-381c4,-116 9,-149 32,-217c37,-109 102,-209 186,-288c84,-80 148,-118 255,-154c68,-22 98,-26 205,-27c146,-1 203,11 315,64c183,88 313,250 365,454c24,97 27,277 5,381c-48,228 -239,441 -459,511c-90,28 -253,40 -338,24zm236,-371c104,-39 183,-142 207,-271c29,-156 -46,-318 -182,-393c-49,-27 -63,-30 -144,-30c-78,0 -97,4 -141,27c-115,61 -177,173 -178,323c0,78 4,98 27,149c84,181 245,258 411,195z" fill="#34a0de" id="svg_4" transform="matrix(1 0 0 1 0 0)"/>
   <path d="m10035,-1251c-169,-42 -316,-143 -372,-257c-25,-51 -28,-68 -28,-152c1,-124 22,-172 134,-305c122,-145 139,-190 102,-272c-25,-55 -74,-86 -186,-118c-49,-14 -93,-29 -98,-34c-9,-9 67,-162 121,-241c36,-53 39,-55 80,-52c56,3 187,51 257,93c84,51 169,139 207,217c31,62 33,73 33,172c0,132 -16,169 -140,325c-96,121 -115,156 -115,212c0,78 71,127 183,126c46,0 67,4 67,12c0,7 -20,55 -44,106c-24,52 -53,115 -64,142c-24,54 -23,54 -137,26z" fill="#34a0de" id="svg_5" transform="matrix(1 0 0 1 0 0)"/>
   <path d="m12248,-1240c-147,-26 -249,-81 -359,-190c-70,-69 -94,-102 -131,-177c-65,-129 -81,-211 -76,-381c4,-116 9,-149 32,-217c37,-109 102,-209 186,-288c84,-80 148,-118 255,-154c68,-22 98,-26 205,-27c146,-1 203,11 315,64c183,88 313,250 365,454c24,97 27,277 5,381c-48,228 -239,441 -459,511c-90,28 -253,40 -338,24zm236,-371c104,-39 183,-142 207,-271c29,-156 -46,-318 -182,-393c-49,-27 -63,-30 -144,-30c-78,0 -97,4 -141,27c-115,61 -177,173 -178,323c0,78 4,98 27,149c84,181 245,258 411,195z" fill="#34a0de" id="svg_6" transform="matrix(1 0 0 1 0 0)"/>
   <path d="m11265,-1277c-140,-12 -472,-12 -705,0c-40,2 -36,12 -64,-173c-9,-58 -19,-116 -23,-129l-6,-24l114,7c63,4 137,9 165,13l51,5l6,-153c4,-85 1,-319 -5,-522c-10,-293 -9,-370 1,-380c16,-16 375,-17 391,-1c8,8 8,91 0,280c-5,148 -10,383 -10,523l0,254l154,-7c85,-4 156,-4 159,1c2,4 2,79 -1,166l-5,157l-31,-1c-17,-1 -103,-8 -191,-16z" fill="#34a0de" id="svg_7" transform="matrix(1 0 0 1 0 0)"/>
   <path d="m13540,-1270c-30,-5 -89,-9 -130,-9c-41,-1 -80,-5 -87,-9c-9,-6 -9,-85 -1,-342c9,-258 9,-410 -1,-664c-7,-195 -9,-332 -4,-337c5,-5 92,-8 194,-7l184,3l-3,363c-2,211 0,362 5,362c9,0 74,-84 402,-516l159,-211l104,-6c57,-3 132,-3 168,1l65,7l6,600c4,330 9,632 13,670c4,39 3,76 -2,83c-7,10 -48,11 -195,6l-187,-7l0,-110c0,-60 5,-208 11,-328c12,-236 9,-292 -19,-287c-16,3 -96,107 -442,574c-139,187 -127,180 -240,164z" fill="#34a0de" id="svg_8" transform="matrix(1 0 0 1 0 0)"/>
   <path d="m6657,-1276c-17,-5 -18,-18 -10,-217c9,-242 10,-589 3,-917l-5,-225l45,-7c25,-3 189,-7 365,-7c353,-1 409,6 521,58c77,36 134,94 175,177c27,54 33,79 37,158c7,141 -33,245 -118,304c-22,15 -39,29 -40,32c0,3 19,28 41,55c23,28 53,74 67,104c21,46 24,63 20,136c-4,68 -10,95 -36,148c-37,74 -73,109 -149,144c-106,49 -163,55 -543,58c-195,2 -363,1 -373,-1zm618,-285c66,-17 95,-51 95,-109c0,-41 -4,-52 -30,-74c-17,-14 -47,-30 -68,-36c-46,-12 -212,-13 -232,0c-21,13 -20,207 1,221c20,12 181,11 234,-2zm29,-530c22,-6 52,-24 68,-39c23,-24 28,-37 28,-79c0,-112 -33,-134 -211,-139c-162,-5 -159,-8 -159,137c0,70 4,111 12,119c15,15 208,16 262,1z" fill="#34a0de" id="svg_9" transform="matrix(1 0 0 1 0 0)"/>
   <path d="m12340,-2839c-384,-100 -500,-671 -193,-942c138,-121 370,-153 539,-76c57,26 164,119 164,143c0,15 -106,179 -122,189c-5,3 -24,-8 -44,-25c-77,-68 -188,-98 -269,-71c-53,17 -118,86 -138,145c-19,55 -22,161 -7,217c26,92 121,168 210,168c68,0 113,-16 179,-65c34,-25 65,-45 70,-45c16,0 121,181 121,209c0,18 -77,84 -134,113c-111,56 -254,72 -376,40z" fill="#34a0de" id="svg_10" transform="matrix(1 0 0 1 0 0)"/>
   <path d="m13921,-2832l-104,-10l8,-67c5,-36 9,-266 10,-511l2,-445l122,-3l122,-3l10,31c6,16 13,30 15,30c2,0 20,-11 40,-25c76,-52 184,-57 284,-14c59,25 132,100 163,166c18,41 22,66 22,173c0,114 -2,130 -26,180c-52,112 -137,174 -254,186c-75,8 -138,-8 -187,-47c-20,-16 -40,-29 -44,-29c-3,0 -5,89 -3,198l4,197l-40,1c-22,1 -87,-3 -144,-8zm370,-543c44,-23 69,-71 69,-130c0,-113 -104,-180 -201,-129c-34,17 -68,82 -69,128c0,42 34,108 67,128c35,22 95,23 134,3z" fill="#34a0de" id="svg_11"/>
   <path d="m6635,-3360l-1,-510l296,0c162,0 318,-3 346,-6c46,-6 53,-4 63,14c14,27 42,208 35,227c-5,11 -37,13 -188,8c-216,-7 -252,0 -261,51c-4,18 -5,48 -3,67l3,34l191,0l192,-1l6,71c4,38 9,95 12,126l6,56l-189,-5l-190,-5l-16,24c-22,30 -22,102 -2,119c12,10 52,12 168,7c84,-4 174,-10 201,-13l49,-7l-7,108c-4,59 -11,116 -17,126c-9,18 -29,19 -352,19l-342,0l0,-510z" fill="#34a0de" id="svg_12" transform="matrix(1 0 0 1 0 0)"/>
   <path d="m10730,-3126c-65,-17 -148,-70 -183,-116c-14,-18 -31,-54 -37,-79c-17,-67 0,-117 64,-193c84,-99 92,-121 53,-160c-15,-15 -46,-27 -90,-36c-37,-7 -67,-15 -67,-19c0,-12 70,-125 93,-149c19,-20 28,-23 67,-17c54,7 155,53 206,92c47,35 74,93 74,161c0,69 -16,104 -84,181c-54,63 -63,82 -50,116c10,25 58,45 109,45c28,0 45,4 45,12c0,14 -67,137 -88,161c-18,20 -39,21 -112,1z" fill="#34a0de" id="svg_13" transform="matrix(1 0 0 1 0 0)"/>
   <path d="m11280,-3126c-65,-17 -148,-70 -183,-116c-14,-18 -31,-54 -37,-79c-17,-67 0,-117 64,-193c84,-99 92,-121 53,-160c-15,-15 -46,-27 -90,-36c-37,-7 -67,-15 -67,-19c0,-12 70,-125 93,-149c19,-20 28,-23 67,-17c54,7 155,53 206,92c47,35 74,93 74,161c0,69 -16,104 -84,181c-54,63 -63,82 -50,116c10,25 58,45 109,45c28,0 45,4 45,12c0,14 -67,137 -88,161c-18,20 -39,21 -112,1z" fill="#34a0de" id="svg_14" transform="matrix(1 0 0 1 0 0)"/>
   <path d="m9960,-3145c-172,-48 -274,-212 -256,-409c17,-188 148,-314 345,-332c120,-11 263,27 315,85c18,20 18,21 -8,73c-15,29 -35,63 -44,75l-17,23l-52,-26c-75,-37 -167,-44 -226,-15c-40,19 -78,63 -65,76c3,3 97,12 209,21c244,18 243,18 237,124c-13,218 -223,364 -438,305zm136,-194c34,-21 63,-76 47,-92c-15,-15 -199,-24 -207,-10c-12,18 13,79 41,101c32,25 79,26 119,1z" fill="#34a0de" id="svg_15" transform="matrix(1 0 0 1 0 0)"/>
   <path d="m13171,-3151c-87,-17 -183,-96 -222,-183c-10,-23 -23,-75 -29,-114c-27,-175 46,-338 185,-410c72,-37 172,-38 235,-1c25,15 53,36 64,48c23,25 36,19 36,-18c0,-16 6,-33 13,-37c6,-5 62,-7 122,-4l110,5l0,285c0,157 4,306 9,331l8,47l-68,15c-38,8 -88,18 -112,22c-41,7 -43,6 -53,-24c-6,-17 -13,-31 -16,-31c-2,0 -21,13 -41,29c-60,48 -137,61 -241,40zm199,-224c96,-50 94,-222 -4,-269c-130,-62 -258,83 -188,213c34,63 126,90 192,56z" fill="#34a0de" id="svg_16" transform="matrix(1 0 0 1 0 0)"/>
   <path d="m8326,-3170c-48,-10 -90,-21 -93,-23c-2,-3 1,-29 7,-58c7,-33 14,-204 17,-444c4,-278 8,-392 16,-397c7,-4 63,-8 125,-8c83,0 112,3 113,13c0,6 0,69 -1,140c-1,70 1,127 3,127c3,0 31,-12 63,-27c48,-23 73,-28 134,-28c134,1 234,67 293,194c28,59 31,76 32,161c0,167 -56,270 -181,331c-58,29 -78,34 -143,34c-69,0 -82,-3 -143,-37l-68,-37l-6,27c-11,49 -13,52 -46,51c-18,0 -73,-9 -122,-19zm388,-230c42,-38 60,-88 52,-146c-10,-78 -50,-114 -124,-114c-82,0 -139,72 -129,161c10,83 55,128 129,129c28,0 46,-8 72,-30z" fill="#34a0de" id="svg_17" transform="matrix(1 0 0 1 0 0)"/>
   <path d="m9359,-3154c-2,-2 -51,-12 -109,-21c-58,-10 -108,-20 -112,-24c-4,-3 -2,-24 4,-46c6,-22 13,-170 17,-330l6,-290l130,0l130,0l-4,187l-3,187l25,25c24,24 34,26 106,26c68,0 80,3 84,18c2,9 4,71 3,137l-1,120l-47,-1c-35,0 -67,-10 -117,-36l-69,-36l-8,41c-8,36 -23,55 -35,43z" fill="#34a0de" id="svg_18" transform="matrix(1 0 0 1 0 0)"/>
   <path d="m7457,-3177c-4,-3 -7,-39 -7,-79l0,-73l59,-68c32,-38 68,-77 80,-87c11,-11 21,-23 21,-28c0,-5 -36,-52 -80,-104l-80,-94l0,-74c0,-88 -2,-86 116,-86c95,0 89,-3 168,98c27,34 52,62 57,62c4,0 29,-30 55,-67c26,-38 54,-74 62,-80c10,-9 50,-13 113,-13c112,0 109,-2 109,94l0,63l-84,98l-85,97l80,91c43,49 82,99 85,111c3,12 4,49 2,81c-4,71 -1,70 -134,60l-93,-7l-52,-69c-29,-38 -55,-69 -58,-69c-4,0 -32,31 -64,69c-47,56 -65,70 -95,75c-50,8 -167,8 -175,-1z" fill="#34a0de" id="svg_19" transform="matrix(1 0 0 1 0 0)"/>
   <use id="svg_22" transform="matrix(1 0 0 1 0 0) matrix(3.59333 0 0 3.59333 0 0)" x="0" xlink:href="#svg_21" y="0"/>
  </g>
 </g>
 <defs>
  <symbol height="50" id="svg_21" width="50" xmlns="http://www.w3.org/2000/svg">
   <rect fill="none" height="32.75" id="svg_20" stroke="#707070" stroke-width="10" width="32.75" x="8.63" y="8.63"/>
  </symbol>
 </defs>
</svg>