<svg xmlns="http://www.w3.org/2000/svg" width="74" height="75" viewBox="0 0 74 75" fill="none"><g clip-path="url(#clip0_718_6)"><path d="M18.1504 70.0362H24.5654C28.2842 70.0362 28.2897 64.2422 24.5654 64.2422H18.1504C14.4318 64.2422 14.4263 70.0362 18.1504 70.0362ZM18.1504 66.4102H24.5654C25.5078 66.4102 25.5078 67.8682 24.5654 67.8682H18.1504C17.2082 67.8682 17.2082 66.4102 18.1504 66.4102Z" fill="#FF3600"></path><path d="M26.1109 37.5626L19.0493 44.6244L16.6037 42.1786C15.6123 41.188 14.0796 42.7205 15.0706 43.7117L18.2828 46.9239C18.7939 47.3471 19.3049 47.3471 19.8159 46.9239L27.6441 39.0957C28.635 38.1045 27.1023 36.572 26.1109 37.5626Z" fill="#FF3600"></path><path d="M73.1938 48.2596C72.7562 47.4242 72.4391 46.509 72.2237 45.5905C71.1666 41.1687 69.5606 36.8848 67.4509 32.8576L63.9233 26.1245C61.9264 22.3126 56.0332 22.9464 54.9206 27.1272C52.2816 26.1778 49.3025 27.7383 48.5809 30.4486C46.3992 29.6635 43.8798 30.5882 42.7232 32.5947V8.792V4.53989C42.723 2.2047 40.8231 0.304688 38.4877 0.304688H13.2352C11.8336 0.304688 11.8336 2.47266 13.2352 2.47266H38.4877C39.6276 2.47266 40.555 3.39997 40.555 4.53989V7.70801H2.16797V4.53989C2.16797 3.39997 3.09528 2.47266 4.2352 2.47266H7.16499C8.56651 2.47266 8.56651 0.304688 7.16499 0.304688H4.2352C1.90001 0.304688 0 2.2047 0 4.53989V8.792V61.0379V70.0695C0 72.4047 1.90001 74.3047 4.2352 74.3047H38.4877C40.823 74.3047 42.723 72.4047 42.723 70.0695V61.0379V56.696L46.5966 58.6119C47.5538 59.0854 48.3405 59.8737 48.812 60.8319C50.5328 64.3289 54.9433 65.7786 58.4077 63.9635L64.8661 60.58C66.1076 59.9296 65.1015 58.0094 63.86 58.6596L57.4016 62.0431C55.0027 63.3005 51.9531 62.3047 50.7572 59.8747C50.0763 58.4911 48.9402 57.3525 47.5577 56.6685L31.1197 48.5378C28.0324 47.0383 30.2651 42.1949 33.4006 43.6573L39.3692 46.7992C40.29 47.284 41.3172 46.259 40.8343 45.3372L30.4657 25.5462C28.7632 22.3454 33.3227 19.3909 35.0618 22.7111L42.3907 36.7L44.305 40.354C44.9369 41.5607 46.8741 40.5863 46.2254 39.3479L44.3617 35.7906C43.607 33.2756 46.7119 31.2478 48.7104 33.0011L50.7842 36.9595C51.4161 38.1662 53.3533 37.1918 52.7046 35.9535L50.5959 31.9286C50.3986 29.6162 53.2303 28.1281 55.0203 29.6533L57.1076 33.6378C57.7395 34.8445 59.6767 33.87 59.028 32.6317L56.9403 28.6467C56.6562 25.8088 60.6504 24.5489 62.0026 27.1304L65.5302 33.8635C67.5568 37.7319 69.0994 41.847 70.115 46.0941C70.3614 47.1958 70.7492 48.2651 71.2733 49.2654C72.5223 51.6493 71.5988 54.6048 69.215 55.8538C67.9736 56.5045 68.9799 58.4248 70.2211 57.7742C73.664 55.9706 74.9976 51.7023 73.1938 48.2596ZM40.555 70.0695C40.555 71.2094 39.6276 72.1367 38.4877 72.1367H4.2352C3.09528 72.1367 2.16797 71.2094 2.16797 70.0695V62.1219H40.555V70.0695ZM27.8717 44.0104C27.1359 45.5571 27.2788 47.4097 28.2376 48.8283C26.445 50.7042 23.9857 51.7672 21.3614 51.7672C16.1103 51.7672 11.8383 47.4952 11.8383 42.244C11.8383 36.9929 16.1103 32.7209 21.3614 32.7209C26.3439 32.7209 30.4422 36.5677 30.8486 41.447C29.5647 41.8386 28.4488 42.7969 27.8717 44.0104ZM35.7423 20.187C35.2697 19.8033 34.7244 19.5081 34.1257 19.3211C30.6535 18.2361 27.1566 21.4201 27.9208 24.9759H7.3419C7.14259 24.9759 6.98057 24.8139 6.98057 24.6146V16.868C6.98057 16.6687 7.14259 16.5066 7.3419 16.5066H35.381C35.5803 16.5066 35.7423 16.6687 35.7423 16.868V20.187ZM40.555 28.5247L37.9103 23.4767V16.868C37.9103 15.4734 36.7755 14.3387 35.381 14.3387H7.3419C5.94732 14.3387 4.8126 15.4734 4.8126 16.868V24.6147C4.8126 26.0093 5.94732 27.144 7.3419 27.144H28.8551L37.2982 43.2594L34.3893 41.7281C34.3765 41.7213 34.3633 41.7146 34.3502 41.7084C33.9195 41.5035 33.469 41.3653 33.0106 41.2933C32.5247 35.2902 27.4875 30.5529 21.3616 30.5529C14.915 30.5529 9.67044 35.7975 9.67044 42.244C9.67044 48.6906 14.915 53.9352 21.3616 53.9352C24.5947 53.9352 27.6264 52.6241 29.8288 50.306C33.2678 52.2878 36.9968 53.8636 40.555 55.6236V59.9537H2.16797V9.87598H40.555V28.5247Z" fill="#040401"></path></g><defs><clipPath id="clip0_718_6"><rect width="74" height="74" fill="white" transform="translate(0 0.304688)"></rect></clipPath></defs></svg>